0
SECTION
2
HEADER
9
$INSUNITS
70
4
9
$ACADVER
1
AC1014
9
$HANDSEED
5
FFFF
0
ENDSEC
0
SECTION
2
TABLES
0
TABLE
2
VPORT
5
8
100
AcDbSymbolTable
0
ENDTAB
0
TABLE
2
LTYPE
5
5
100
AcDbSymbolTable
0
LTYPE
5
14
100
AcDbSymbolTableRecord
100
AcDbLinetypeTableRecord
2
BYBLOCK
70
0
0
LTYPE
5
15
100
AcDbSymbolTableRecord
100
AcDbLinetypeTableRecord
2
BYLAYER
70
0
0
ENDTAB
0
TABLE
2
LAYER
5
2
100
AcDbSymbolTable
70
2
0
LAYER
5
50
100
AcDbSymbolTableRecord
100
AcDbLayerTableRecord
2
0
70
0
6
CONTINUOUS
0
ENDTAB
0
TABLE
2
STYLE
5
3
100
AcDbSymbolTable
70
1
0
STYLE
5
11
100
AcDbSymbolTableRecord
100
AcDbTextStyleTableRecord
2
STANDARD
70
0
0
ENDTAB
0
TABLE
2
VIEW
5
6
100
AcDbSymbolTable
70
0
0
ENDTAB
0
TABLE
2
UCS
5
7
100
AcDbSymbolTable
70
0
0
ENDTAB
0
TABLE
2
APPID
5
9
100
AcDbSymbolTable
70
2
0
APPID
5
12
100
AcDbSymbolTableRecord
100
AcDbRegAppTableRecord
2
ACAD
70
0
0
ENDTAB
0
TABLE
2
DIMSTYLE
5
A
100
AcDbSymbolTable
70
1
0
ENDTAB
0
TABLE
2
BLOCK_RECORD
5
1
100
AcDbSymbolTable
70
1
0
BLOCK_RECORD
5
1F
100
AcDbSymbolTableRecord
100
AcDbBlockTableRecord
2
*MODEL_SPACE
0
BLOCK_RECORD
5
1B
100
AcDbSymbolTableRecord
100
AcDbBlockTableRecord
2
*PAPER_SPACE
0
ENDTAB
0
ENDSEC
0
SECTION
2
BLOCKS
0
BLOCK
5
20
100
AcDbEntity
100
AcDbBlockBegin
2
*MODEL_SPACE
0
ENDBLK
5
21
100
AcDbEntity
100
AcDbBlockEnd
0
BLOCK
5
1C
100
AcDbEntity
100
AcDbBlockBegin
2
*PAPER_SPACE
0
ENDBLK
5
1D
100
AcDbEntity
100
AcDbBlockEnd
0
ENDSEC
0
SECTION
2
ENTITIES
0
LWPOLYLINE
5
100
100
AcDbEntity
8
0
100
AcDbPolyline
90
10
70
1
43
0.0
10
-158
20
0
10
0
20
0
10
0
20
-100
10
-158
20
-100
10
-160
20
-98
10
-160
20
-69
10
-163
20
-69
10
-163
20
-31
10
-160
20
-31
10
-160
20
-2
0
LINE
5
101
100
AcDbEntity
8
0
100
AcDbLine
10
0
20
-100
30
0
11
-158
21
-100
31
0
0
LINE
5
102
100
AcDbEntity
8
0
100
AcDbLine
10
-158
20
-100
30
0
11
-160
21
-98
31
0
0
LINE
5
103
100
AcDbEntity
8
0
100
AcDbLine
10
-160
20
-98
30
0
11
-160
21
-69
31
0
0
LINE
5
104
100
AcDbEntity
8
0
100
AcDbLine
10
-160
20
-69
30
0
11
-163
21
-69
31
0
0
LINE
5
105
100
AcDbEntity
8
0
100
AcDbLine
10
-163
20
-69
30
0
11
-163
21
-31
31
0
0
LINE
5
106
100
AcDbEntity
8
0
100
AcDbLine
10
-163
20
-31
30
0
11
-160
21
-31
31
0
0
LINE
5
107
100
AcDbEntity
8
0
100
AcDbLine
10
-160
20
-31
30
0
11
-160
21
-2
31
0
0
LINE
5
108
100
AcDbEntity
8
0
100
AcDbLine
10
-160
20
-2
30
0
11
-158
21
0
31
0
0
LINE
5
109
100
AcDbEntity
8
0
100
AcDbLine
10
-158
20
0
30
0
11
0
21
0
31
0
0
LINE
5
110
100
AcDbEntity
8
0
100
AcDbLine
10
0
20
-100
30
0
11
0
21
0
31
0
0
LINE
5
111
100
AcDbEntity
8
0
100
AcDbLine
10
-142.32044133333332
20
-3.2995586666666643
30
0
11
-137.81955866666664
21
-3.2995586666666643
31
0
0
LINE
5
112
100
AcDbEntity
8
0
100
AcDbLine
10
-142.32044133333332
20
-7.8004413333333389
30
0
11
-142.32044133333332
21
-3.2995586666666643
31
0
0
LINE
5
113
100
AcDbEntity
8
0
100
AcDbLine
10
-137.81955866666667
20
-7.8004413333333389
30
0
11
-142.32044133333335
21
-7.8004413333333389
31
0
0
LINE
5
114
100
AcDbEntity
8
0
100
AcDbLine
10
-137.81955866666667
20
-3.2995586666666643
30
0
11
-137.81955866666667
21
-7.8004413333333389
31
0
0
LINE
5
115
100
AcDbEntity
8
0
100
AcDbLine
10
-6.7450000000000099
20
-9.2330000000000112
30
0
11
0
21
-9.2330000000000005
31
0
0
LINE
5
116
100
AcDbEntity
8
0
100
AcDbLine
10
-6.7450000000000099
20
-1.6130000000000067
30
0
11
-6.7450000000000099
21
-9.2330000000000112
31
0
0
LINE
5
117
100
AcDbEntity
8
0
100
AcDbLine
10
0
20
-2.8830000000000005
30
0
11
-4.4590000000000085
21
-2.8830000000000044
31
0
0
LINE
5
118
100
AcDbEntity
8
0
100
AcDbLine
10
-4.4590000000000085
20
-1.6130000000000067
30
0
11
-6.7450000000000099
21
-1.6130000000000067
31
0
0
LINE
5
119
100
AcDbEntity
8
0
100
AcDbLine
10
-4.4590000000000085
20
-2.8830000000000044
30
0
11
-4.4590000000000085
21
-1.6130000000000067
31
0
0
LINE
5
120
100
AcDbEntity
8
0
100
AcDbLine
10
-27.250441333333324
20
-3.2995586666666643
30
0
11
-22.749558666666676
21
-3.2995586666666643
31
0
0
LINE
5
121
100
AcDbEntity
8
0
100
AcDbLine
10
-27.250441333333324
20
-7.8004413333333389
30
0
11
-27.250441333333324
21
-3.2995586666666643
31
0
0
LINE
5
122
100
AcDbEntity
8
0
100
AcDbLine
10
-22.749558666666676
20
-7.8004413333333389
30
0
11
-27.250441333333342
21
-7.8004413333333389
31
0
0
LINE
5
123
100
AcDbEntity
8
0
100
AcDbLine
10
-22.749558666666676
20
-3.2995586666666643
30
0
11
-22.749558666666676
21
-7.8004413333333389
31
0
0
LINE
5
124
100
AcDbEntity
8
0
100
AcDbLine
10
-47.749558666666672
20
-3.2995586666666643
30
0
11
-47.749558666666672
21
-7.8004413333333389
31
0
0
LINE
5
125
100
AcDbEntity
8
0
100
AcDbLine
10
-47.749558666666672
20
-7.8004413333333389
30
0
11
-52.250441333333328
21
-7.8004413333333389
31
0
0
LINE
5
126
100
AcDbEntity
8
0
100
AcDbLine
10
-52.250441333333335
20
-3.2995586666666643
30
0
11
-47.749558666666672
21
-3.2995586666666643
31
0
0
LINE
5
127
100
AcDbEntity
8
0
100
AcDbLine
10
-52.250441333333335
20
-7.8004413333333389
30
0
11
-52.250441333333335
21
-3.2995586666666643
31
0
0
LINE
5
128
100
AcDbEntity
8
0
100
AcDbLine
10
-60.550448666666668
20
-11.549551333333339
30
0
11
-66.049551333333326
21
-11.549551333333339
31
0
0
LINE
5
129
100
AcDbEntity
8
0
100
AcDbLine
10
-60.550448666666668
20
-6.0504486666666768
30
0
11
-60.550448666666668
21
-11.549551333333339
31
0
0
LINE
5
130
100
AcDbEntity
8
0
100
AcDbLine
10
-66.049551333333326
20
-6.0504486666666768
30
0
11
-60.550448666666668
21
-6.0504486666666768
31
0
0
LINE
5
131
100
AcDbEntity
8
0
100
AcDbLine
10
-66.049551333333326
20
-11.549551333333339
30
0
11
-66.049551333333326
21
-6.0504486666666768
31
0
0
LINE
5
132
100
AcDbEntity
8
0
100
AcDbLine
10
-68.550448666666668
20
-6.0504486666666768
30
0
11
-68.550448666666668
21
-11.549551333333339
31
0
0
LINE
5
133
100
AcDbEntity
8
0
100
AcDbLine
10
-68.550448666666668
20
-11.549551333333339
30
0
11
-74.049551333333326
21
-11.549551333333339
31
0
0
LINE
5
134
100
AcDbEntity
8
0
100
AcDbLine
10
-74.049551333333326
20
-11.549551333333339
30
0
11
-74.049551333333326
21
-6.0504486666666768
31
0
0
LINE
5
135
100
AcDbEntity
8
0
100
AcDbLine
10
-74.049551333333326
20
-6.0504486666666768
30
0
11
-68.550448666666668
21
-6.0504486666666768
31
0
0
LINE
5
136
100
AcDbEntity
8
0
100
AcDbLine
10
-115.44955133333333
20
-6.0504486666666768
30
0
11
-109.95044866666667
21
-6.0504486666666768
31
0
0
LINE
5
137
100
AcDbEntity
8
0
100
AcDbLine
10
-115.44955133333333
20
-11.549551333333339
30
0
11
-115.44955133333333
21
-6.0504486666666768
31
0
0
LINE
5
138
100
AcDbEntity
8
0
100
AcDbLine
10
-109.95044866666669
20
-6.0504486666666768
30
0
11
-109.95044866666669
21
-11.549551333333339
31
0
0
LINE
5
139
100
AcDbEntity
8
0
100
AcDbLine
10
-109.95044866666669
20
-11.549551333333339
30
0
11
-115.44955133333335
21
-11.549551333333339
31
0
0
LINE
5
140
100
AcDbEntity
8
0
100
AcDbLine
10
-117.95044866666669
20
-11.549551333333339
30
0
11
-123.44955133333335
21
-11.549551333333339
31
0
0
LINE
5
141
100
AcDbEntity
8
0
100
AcDbLine
10
-117.95044866666669
20
-6.0504486666666768
30
0
11
-117.95044866666669
21
-11.549551333333339
31
0
0
LINE
5
142
100
AcDbEntity
8
0
100
AcDbLine
10
-123.44955133333332
20
-6.0504486666666768
30
0
11
-117.95044866666665
21
-6.0504486666666768
31
0
0
LINE
5
143
100
AcDbEntity
8
0
100
AcDbLine
10
-123.44955133333332
20
-11.549551333333339
30
0
11
-123.44955133333332
21
-6.0504486666666768
31
0
0
LINE
5
144
100
AcDbEntity
8
0
100
AcDbLine
10
-1.319558666666687
20
-92.199558666666661
30
0
11
-1.319558666666687
21
-96.70044133333333
31
0
0
LINE
5
145
100
AcDbEntity
8
0
100
AcDbLine
10
-5.8204413333333349
20
-92.199558666666661
30
0
11
-1.319558666666687
21
-92.199558666666661
31
0
0
LINE
5
146
100
AcDbEntity
8
0
100
AcDbLine
10
-5.8204413333333349
20
-96.70044133333333
30
0
11
-5.8204413333333349
21
-92.199558666666661
31
0
0
LINE
5
147
100
AcDbEntity
8
0
100
AcDbLine
10
-1.319558666666687
20
-96.70044133333333
30
0
11
-5.8204413333333349
21
-96.70044133333333
31
0
0
LINE
5
148
100
AcDbEntity
8
0
100
AcDbLine
10
-52.250441333333335
20
-92.199558666666661
30
0
11
-47.749558666666672
21
-92.199558666666661
31
0
0
LINE
5
149
100
AcDbEntity
8
0
100
AcDbLine
10
-47.749558666666672
20
-92.199558666666661
30
0
11
-47.749558666666672
21
-96.70044133333333
31
0
0
LINE
5
150
100
AcDbEntity
8
0
100
AcDbLine
10
-47.749558666666672
20
-96.70044133333333
30
0
11
-52.250441333333328
21
-96.70044133333333
31
0
0
LINE
5
151
100
AcDbEntity
8
0
100
AcDbLine
10
-52.250441333333335
20
-96.70044133333333
30
0
11
-52.250441333333335
21
-92.199558666666661
31
0
0
LINE
5
152
100
AcDbEntity
8
0
100
AcDbLine
10
-60.550448666666668
20
-88.450448666666688
30
0
11
-60.550448666666668
21
-93.949551333333346
31
0
0
LINE
5
153
100
AcDbEntity
8
0
100
AcDbLine
10
-60.550448666666668
20
-93.949551333333332
30
0
11
-66.049551333333326
21
-93.949551333333332
31
0
0
LINE
5
154
100
AcDbEntity
8
0
100
AcDbLine
10
-66.049551333333326
20
-88.450448666666688
30
0
11
-60.550448666666668
21
-88.450448666666688
31
0
0
LINE
5
155
100
AcDbEntity
8
0
100
AcDbLine
10
-66.049551333333326
20
-93.949551333333332
30
0
11
-66.049551333333326
21
-88.450448666666659
31
0
0
LINE
5
156
100
AcDbEntity
8
0
100
AcDbLine
10
-68.550448666666668
20
-88.450448666666688
30
0
11
-68.550448666666668
21
-93.949551333333346
31
0
0
LINE
5
157
100
AcDbEntity
8
0
100
AcDbLine
10
-68.550448666666668
20
-93.949551333333332
30
0
11
-74.049551333333326
21
-93.949551333333332
31
0
0
LINE
5
158
100
AcDbEntity
8
0
100
AcDbLine
10
-74.049551333333326
20
-93.949551333333332
30
0
11
-74.049551333333326
21
-88.450448666666659
31
0
0
LINE
5
159
100
AcDbEntity
8
0
100
AcDbLine
10
-74.049551333333326
20
-88.450448666666688
30
0
11
-68.550448666666668
21
-88.450448666666688
31
0
0
LINE
5
160
100
AcDbEntity
8
0
100
AcDbLine
10
-142.32044133333332
20
-92.199558666666661
30
0
11
-137.81955866666664
21
-92.199558666666661
31
0
0
LINE
5
161
100
AcDbEntity
8
0
100
AcDbLine
10
-137.81955866666667
20
-92.199558666666661
30
0
11
-137.81955866666667
21
-96.70044133333333
31
0
0
LINE
5
162
100
AcDbEntity
8
0
100
AcDbLine
10
-142.32044133333332
20
-96.70044133333333
30
0
11
-142.32044133333332
21
-92.199558666666661
31
0
0
LINE
5
163
100
AcDbEntity
8
0
100
AcDbLine
10
-137.81955866666667
20
-96.70044133333333
30
0
11
-142.32044133333335
21
-96.70044133333333
31
0
0
LINE
5
164
100
AcDbEntity
8
0
100
AcDbLine
10
-123.44955133333332
20
-93.949551333333332
30
0
11
-123.44955133333332
21
-88.450448666666659
31
0
0
LINE
5
165
100
AcDbEntity
8
0
100
AcDbLine
10
-123.44955133333332
20
-88.450448666666688
30
0
11
-117.95044866666665
21
-88.450448666666688
31
0
0
LINE
5
166
100
AcDbEntity
8
0
100
AcDbLine
10
-117.95044866666669
20
-88.450448666666688
30
0
11
-117.95044866666669
21
-93.949551333333346
31
0
0
LINE
5
167
100
AcDbEntity
8
0
100
AcDbLine
10
-117.95044866666669
20
-93.949551333333332
30
0
11
-123.44955133333335
21
-93.949551333333332
31
0
0
LINE
5
168
100
AcDbEntity
8
0
100
AcDbLine
10
-115.44955133333333
20
-93.949551333333332
30
0
11
-115.44955133333333
21
-88.450448666666659
31
0
0
LINE
5
169
100
AcDbEntity
8
0
100
AcDbLine
10
-109.95044866666669
20
-93.949551333333332
30
0
11
-115.44955133333335
21
-93.949551333333332
31
0
0
LINE
5
170
100
AcDbEntity
8
0
100
AcDbLine
10
-109.95044866666669
20
-88.450448666666688
30
0
11
-109.95044866666669
21
-93.949551333333346
31
0
0
LINE
5
171
100
AcDbEntity
8
0
100
AcDbLine
10
-115.44955133333333
20
-88.450448666666688
30
0
11
-109.95044866666667
21
-88.450448666666688
31
0
0
LINE
5
172
100
AcDbEntity
8
0
100
AcDbLine
10
-158.59999694827408
20
-67.124998092820007
30
0
11
-159.79999694827404
21
-67.124998092820007
31
0
0
LINE
5
173
100
AcDbEntity
8
0
100
AcDbLine
10
-159.79999694827404
20
-66.874998092820007
30
0
11
-159.79999694827404
21
-67.124998092820007
31
0
0
LINE
5
174
100
AcDbEntity
8
0
100
AcDbLine
10
-158.59999694827408
20
-66.874998092820007
30
0
11
-159.79999694827404
21
-66.874998092820007
31
0
0
LINE
5
175
100
AcDbEntity
8
0
100
AcDbLine
10
-158.59999694827408
20
-66.874998092820007
30
0
11
-158.59999694827408
21
-67.124998092820007
31
0
0
ENDSEC
0
SECTION
2
OBJECTS
0
DICTIONARY
5
C
100
AcDbDictionary
3
ACAD_GROUP
350
D
3
ACAD_MLINESTYLE
350
17
0
DICTIONARY
5
D
100
AcDbDictionary
0
DICTIONARY
5
1A
330
C
100
AcDbDictionary
0
DICTIONARY
5
17
100
AcDbDictionary
0
ENDSEC
0
EOF
